<svg id="Capa_1" enable-background="new 0 0 511.994 511.994" height="512" viewBox="0 0 511.994 511.994" width="512" xmlns="http://www.w3.org/2000/svg"><g><path d="m508.711 435.996-49.92-99.32c-1.054-2.097-3.029-3.58-5.336-4.007-2.308-.427-4.683.251-6.417 1.832-3.525 3.213-8.113 4.983-12.917 4.983-10.615 0-19.25-8.64-19.25-19.26 0-9.176 6.526-17.12 15.519-18.891 2.3-.453 4.256-1.955 5.287-4.06s1.018-4.571-.034-6.666l-12.571-25.023c-6.032-11.994-18.12-19.445-31.545-19.446-.001 0-.002 0-.003 0-1.298 0-2.577.09-3.846.227-.329-18.527-.806-37.078-1.439-55.279-.635-18.389-6.042-36.35-15.638-51.942-2.171-3.528-6.791-4.628-10.318-2.456-3.527 2.171-4.627 6.791-2.456 10.318 8.235 13.381 12.876 28.803 13.421 44.6.687 19.713 1.191 39.839 1.518 59.898-5.355 3.355-9.808 8.157-12.784 14.072l-36.693 73.009c-14.205-22.076-34.094-39.201-57.297-39.201-40.472 0-70.865 52.09-78.583 91.697h-.485c-3.958-20.31-13.879-43.897-28.064-62.066-.102-14.291-.104-28.647-.017-43.033 7.749.154 15.516.255 23.304.255 19.46 0 38.999-.479 58.383-1.433 13.141-.647 23.806-10.599 25.36-23.664 2.098-17.642 2.098-35.533 0-53.175-1.554-13.065-12.218-23.017-25.356-23.663-26.229-1.29-52.791-1.701-79.085-1.243 3.91-30.791 22.989-57.27 51.366-70.67h106.366c7.459 3.522 14.42 8.046 20.699 13.491 1.419 1.231 3.168 1.834 4.91 1.834 2.099 0 4.187-.876 5.67-2.586 2.713-3.129 2.376-7.866-.753-10.58-3.379-2.93-6.937-5.621-10.635-8.089 6.486-5.093 10.665-12.998 10.665-21.865 0-12.728-8.602-23.477-20.295-26.759v-26.522c-.003-17.266-14.049-31.313-31.316-31.313h-64.261c-17.266 0-31.313 14.047-31.313 31.313v26.524c-11.694 3.282-20.296 14.031-20.296 26.759 0 8.866 4.177 16.769 10.661 21.862-11.323 7.552-21.146 17.243-28.883 28.612-11.265 16.553-17.586 35.924-18.279 56.016-1.407 40.604-2.068 81.649-1.976 122.273-10.498-8.599-22.448-13.974-35.439-13.974-18.236 0-36.689 11.165-51.96 31.438-2.493 3.308-1.831 8.011 1.478 10.503 3.309 2.493 8.011 1.831 10.503-1.478 7.164-9.51 21.884-25.463 39.98-25.463 14.095 0 28.902 9.871 41.695 27.793 10.13 14.192 17.9 31.947 21.582 48.904h-126.562c1.916-8.8 4.963-17.919 8.979-26.796 1.707-3.774.032-8.217-3.742-9.925-3.773-1.707-8.217-.032-9.925 3.742-4.925 10.887-8.527 22.159-10.601 32.978h-10.298c-10.729 0-19.457 8.728-19.457 19.457 0 10.728 8.729 19.457 19.457 19.457h3.686c1.245 11.49 3.344 22.941 5.397 34.075 1.463 7.934 2.976 16.139 4.126 24.135 1.558 10.797 10.19 19.198 20.996 20.431 19.664 2.235 37.156 3.353 54.655 3.353 17.473 0 34.953-1.114 54.602-3.343 3.586-.408 6.923-1.612 9.854-3.413 7.654 4.435 16.278 6.759 25.257 6.759h67.96l-.019-.005c17.504.001 35.005-1.116 54.679-3.352 5.21-.594 9.905-2.867 13.556-6.26 18.556 6.406 37.858 9.555 57.074 9.555 39.084 0 77.797-12.983 109.075-37.856 11.374-9.037 14.884-25.051 8.344-38.078zm-291.159-404.683c0-8.995 7.318-16.313 16.313-16.313h64.261c8.995 0 16.313 7.318 16.313 16.313v25.487h-96.887zm-7.5 40.487h111.887c7.056 0 12.795 5.74 12.795 12.795 0 7.056-5.74 12.796-12.795 12.796h-111.887c-7.056 0-12.796-5.74-12.796-12.796 0-7.055 5.741-12.795 12.796-12.795zm29.743 127.486c5.802.285 10.512 4.681 11.198 10.452 1.958 16.467 1.958 33.166 0 49.632-.686 5.771-5.397 10.168-11.202 10.453-26.855 1.322-54.004 1.708-80.825 1.173.257-24.325.782-48.687 1.574-72.915 26.344-.484 52.967-.087 79.255 1.205zm133.585 73.03c3.522-6.999 10.303-11.177 18.142-11.177h.002c7.84.001 14.624 4.182 18.145 11.183l8.768 17.452c-11.148 5.761-18.566 17.407-18.566 30.451 0 18.891 15.364 34.26 34.25 34.26 5.289 0 10.435-1.208 15.08-3.489l41.962 83.486c-.045.036-.086.076-.131.112-21.096 16.779-46.322 28.002-72.95 32.456-24.004 4.015-48.769 2.483-72.038-4.381 1.97-10.695 3.943-21.665 5.134-32.674h3.69c10.729 0 19.457-8.728 19.457-19.457s-8.728-19.457-19.457-19.457h-10.296c-2.279-11.695-6.534-24.476-12.444-36.686zm-149.087 69.864c12.794-17.924 27.603-27.795 41.697-27.795 14.098 0 28.907 9.871 41.7 27.795 10.129 14.191 17.898 31.946 21.579 48.903h-126.558c3.681-16.955 11.451-34.71 21.582-48.903zm-209.281 68.36c0-2.458 2-4.457 4.457-4.457h335.399c2.458 0 4.457 1.999 4.457 4.457 0 2.457-1.999 4.457-4.457 4.457h-335.399c-2.458-.001-4.457-2-4.457-4.457zm167.595 82.934c.651-1.674 1.135-3.433 1.399-5.27.701-4.917 1.533-10.776 2.403-17.028.06-.424.092-.658.757-.658.666 0 .698.234.757.652.871 6.259 1.703 12.118 2.405 17.043.439 3.049 1.461 5.897 2.924 8.457-3.712-.497-7.291-1.572-10.645-3.196zm136.357.26c-38.085 4.328-67.768 4.331-105.865.01-4.083-.465-7.342-3.617-7.923-7.657-.699-4.903-1.528-10.744-2.398-16.992-1.12-7.994-7.541-13.577-15.613-13.576-8.072 0-14.492 5.583-15.612 13.583-.869 6.241-1.698 12.083-2.396 16.977-.582 4.048-3.841 7.2-7.921 7.665-38.104 4.321-67.787 4.318-105.865-.01-4.035-.46-7.262-3.614-7.847-7.667-1.192-8.286-2.732-16.639-4.222-24.716-1.903-10.318-3.844-20.913-5.054-31.355h297.836c-1.212 10.47-3.158 21.094-5.065 31.44-1.484 8.052-3.019 16.377-4.211 24.637-.584 4.051-3.811 7.201-7.844 7.661zm172.068-31.4c-41.996 33.395-98.652 43.323-149.523 26.659.046-.26.108-.514.146-.776.511-3.539 1.098-7.119 1.714-10.698 15.67 4.462 31.935 6.725 48.229 6.725 9.684 0 19.378-.797 28.959-2.399 27.71-4.635 54.023-15.983 76.403-32.888.288 5.049-1.81 10.105-5.928 13.377z"/><path d="m398.513 433.389c5.054 7.351 12.668 12.293 21.439 13.917 2.052.38 4.109.568 6.151.568 6.69 0 13.219-2.014 18.851-5.886 7.351-5.054 12.293-12.668 13.917-21.439 1.625-8.771-.265-17.65-5.318-25.001-5.054-7.351-12.668-12.293-21.439-13.917-8.774-1.624-17.65.265-25.001 5.318-7.351 5.054-12.293 12.668-13.917 21.439-1.626 8.772.263 17.651 5.317 25.001zm9.431-22.27c.895-4.832 3.618-9.026 7.667-11.81 3.102-2.133 6.698-3.242 10.383-3.242 1.125 0 2.259.104 3.388.313 4.832.895 9.026 3.617 11.811 7.667 2.784 4.049 3.824 8.94 2.93 13.772-.895 4.832-3.618 9.026-7.667 11.81-4.05 2.784-8.942 3.824-13.771 2.93-4.832-.895-9.026-3.617-11.811-7.667-2.784-4.05-3.825-8.941-2.93-13.773z"/><path d="m367.015 388.403c1.496.277 2.996.414 4.485.414 4.877 0 9.637-1.469 13.743-4.291 5.359-3.685 8.962-9.236 10.146-15.63 1.185-6.395-.193-12.868-3.877-18.228s-9.236-8.963-15.63-10.147c-13.201-2.443-25.93 6.307-28.374 19.508-2.446 13.201 6.306 25.93 19.507 28.374zm-4.759-25.643c.938-5.068 5.826-8.43 10.894-7.489 2.455.455 4.586 1.838 6.001 3.896s1.943 4.543 1.489 6.998c-.455 2.455-1.838 4.587-3.896 6.001-2.057 1.415-4.54 1.944-6.998 1.489-5.068-.94-8.428-5.827-7.49-10.895z"/></g></svg>