<svg id="Capa_1" enable-background="new 0 0 511.905 511.905" height="512" viewBox="0 0 511.905 511.905" width="512" xmlns="http://www.w3.org/2000/svg"><g id="XMLID_772_"><g id="XMLID_1083_"><g id="XMLID_1406_"><path id="XMLID_3868_" d="m276.531 15.811c17.462-10.811 40.313-6.266 52.309 10.405 8.661 12.037 23.387 18.137 38.023 15.75 20.27-3.306 39.642 9.638 44.345 29.631 3.396 14.435 14.667 25.706 29.102 29.102 19.992 4.703 32.936 24.075 29.631 44.345-2.387 14.636 3.713 29.362 15.75 38.023 16.671 11.996 21.216 34.847 10.405 52.309-7.806 12.608-7.806 28.548 0 41.156 10.811 17.462 6.266 40.313-10.405 52.309-12.037 8.661-18.137 23.387-15.75 38.023 3.306 20.27-9.638 39.642-29.631 44.345-14.435 3.396-25.706 14.667-29.102 29.102-4.703 19.992-24.075 32.936-44.345 29.631-14.636-2.387-29.362 3.713-38.023 15.75-11.996 16.671-34.847 21.216-52.309 10.405-12.608-7.806-28.548-7.806-41.156 0-17.462 10.811-40.313 6.266-52.309-10.405-8.661-12.037-23.387-18.137-38.023-15.75-20.27 3.306-39.642-9.638-44.345-29.631-3.396-14.435-14.667-25.706-29.102-29.102-19.992-4.703-32.936-24.075-29.631-44.345 2.387-14.636-3.713-29.362-15.75-38.023-16.671-11.996-21.216-34.846-10.405-52.309 7.806-12.608 7.806-28.548 0-41.156-10.811-17.462-6.266-40.313 10.405-52.309 12.037-8.661 18.137-23.387 15.75-38.023-3.306-20.27 9.638-39.642 29.631-44.345 14.435-3.396 25.706-14.667 29.102-29.102 4.703-19.992 24.075-32.936 44.345-29.631 14.636 2.387 29.362-3.713 38.023-15.75 11.996-16.671 34.847-21.216 52.309-10.405 12.608 7.806 28.547 7.806 41.156 0z" fill="#ffce69"/></g><g id="XMLID_1404_"><circle id="XMLID_3857_" cx="255.953" cy="255.953" fill="#fff" r="186"/></g></g><g id="XMLID_1607_"><path id="XMLID_2128_" d="m504.597 240.639c13.519-21.835 7.78-50.69-13.066-65.69-9.018-6.489-13.509-17.332-11.721-28.296 4.134-25.347-12.21-49.809-37.21-55.689-10.814-2.544-19.113-10.842-21.657-21.657-5.881-25-30.346-41.345-55.689-37.21-10.967 1.785-21.809-2.703-28.297-11.721-15.001-20.848-43.855-26.586-65.69-13.068-9.447 5.849-21.183 5.848-30.628 0-21.835-13.519-50.689-7.78-65.69 13.066-6.488 9.018-17.331 13.509-28.296 11.721-25.346-4.133-49.809 12.21-55.689 37.21-2.544 10.814-10.842 19.113-21.657 21.657-25 5.881-41.344 30.343-37.21 55.689 1.788 10.965-2.703 21.808-11.721 28.297-20.846 15-26.585 43.854-13.066 65.69 5.848 9.446 5.848 21.182 0 30.628-13.519 21.835-7.78 50.69 13.066 65.69 9.018 6.489 13.509 17.332 11.721 28.296-4.134 25.347 12.21 49.809 37.21 55.689 10.814 2.544 19.113 10.842 21.657 21.657 5.27 22.399 25.451 37.851 47.825 37.849 2.597 0 5.229-.208 7.864-.639 10.964-1.788 21.808 2.703 28.297 11.721 9.52 13.23 24.618 20.375 39.962 20.375 8.833 0 17.75-2.369 25.728-7.308 9.446-5.85 21.183-5.849 30.628 0 21.834 13.518 50.689 7.78 65.69-13.066 6.489-9.018 17.333-13.506 28.296-11.721 25.346 4.133 49.809-12.21 55.689-37.21 2.544-10.814 10.842-19.113 21.657-21.657 25-5.881 41.344-30.343 37.21-55.689-1.788-10.965 2.703-21.808 11.721-28.297 20.846-15 26.585-43.854 13.066-65.69-5.848-9.445-5.848-21.181 0-30.627zm-17.005 41.156c8.012 12.939 4.61 30.039-7.743 38.927-15.217 10.95-22.796 29.247-19.779 47.75 2.45 15.02-7.236 29.516-22.05 33.001-18.25 4.293-32.253 18.296-36.546 36.546-3.485 14.815-17.985 24.501-33.001 22.051-18.504-3.021-36.801 4.561-47.75 19.779-8.888 12.354-25.987 15.756-38.927 7.743-15.94-9.869-35.744-9.868-51.685 0-12.941 8.012-30.039 4.61-38.927-7.743-9.358-13.006-24.083-20.432-39.718-20.432-2.658 0-5.344.215-8.033.653-15.017 2.451-29.516-7.236-33.001-22.05-4.293-18.25-18.296-32.253-36.546-36.546-14.815-3.485-24.501-17.981-22.051-33.001 3.018-18.503-4.562-36.8-19.779-47.75-12.354-8.889-15.755-25.988-7.743-38.927 9.869-15.94 9.869-35.744 0-51.685-8.012-12.939-4.61-30.039 7.743-38.927 15.217-10.95 22.796-29.247 19.779-47.75-2.45-15.02 7.236-29.516 22.05-33.001 18.25-4.293 32.253-18.296 36.546-36.546 3.485-14.815 17.984-24.499 33.001-22.051 18.5 3.017 36.799-4.562 47.75-19.779 8.889-12.354 25.988-15.754 38.927-7.743 15.94 9.869 35.744 9.869 51.685 0 12.939-8.012 30.038-4.611 38.927 7.743 10.949 15.217 29.248 22.798 47.75 19.779 15.017-2.448 29.516 7.235 33.001 22.05 4.293 18.25 18.296 32.253 36.546 36.546 14.815 3.485 24.501 17.981 22.051 33.001-3.018 18.503 4.562 36.8 19.779 47.75 12.354 8.889 15.755 25.988 7.743 38.927-9.867 15.941-9.867 35.745.001 51.685z"/><path id="XMLID_2189_" d="m409.832 150.959c-4.72 2.868-6.221 9.019-3.353 13.739 16.665 27.427 25.474 58.983 25.474 91.255 0 97.047-78.953 176-176 176s-176-78.953-176-176 78.953-176 176-176c32.176 0 63.651 8.76 91.021 25.333 4.725 2.861 10.875 1.35 13.734-3.375 2.86-4.724 1.35-10.873-3.375-13.733-30.495-18.464-65.552-28.224-101.38-28.224-108.075 0-196 87.925-196 196s87.925 196 196 196 196-87.925 196-196c0-35.936-9.814-71.082-28.382-101.641-2.868-4.721-9.018-6.223-13.739-3.354z"/><path id="XMLID_2205_" d="m173.947 215.953v49.249l-37.831-54.782c-2.487-3.6-7.027-5.166-11.205-3.864s-7.024 5.17-7.024 9.547v79.851c0 5.523 4.477 10 10 10s10-4.477 10-10v-47.772l35.765 51.79c2.938 4.244 7.838 6.05 12.488 4.599 4.743-1.481 7.807-5.922 7.807-11.312v-77.304c0-5.523-4.477-10-10-10s-10 4.475-10 9.998z"/><path id="XMLID_2206_" d="m257.502 225.953c5.523 0 10-4.477 10-10s-4.477-10-10-10h-33.709c-5.523 0-10 4.477-10 10v80c0 5.523 4.477 10 10 10h33.709c5.523 0 10-4.477 10-10s-4.477-10-10-10h-23.709v-20h21.224c5.523 0 10-4.477 10-10s-4.477-10-10-10h-21.224v-20z"/><path id="XMLID_2207_" d="m350.191 213.023c-.97-2.988-3.322-5.477-6.551-6.476-5.276-1.633-10.877 1.32-12.51 6.596l-14.73 47.591-9.242-46.721c-1.072-5.417-6.328-8.94-11.75-7.87-5.418 1.072-8.941 6.333-7.87 11.75l15.587 78.799c.095.477.224.947.386 1.405 1.671 4.708 6.135 7.855 11.125 7.855h.08c5.022-.034 9.481-3.251 11.098-8.006.029-.086.058-.173.084-.261l14.785-47.767 14.719 47.777c.042.135.086.27.134.404 1.672 4.706 6.136 7.853 11.124 7.853h.08c5.021-.034 9.48-3.25 11.097-8.004.141-.415.255-.838.34-1.268l15.649-78.629c1.078-5.417-2.439-10.682-7.855-11.76-5.418-1.078-10.682 2.439-11.76 7.855l-9.271 46.58-14.701-47.719z"/><path id="XMLID_2208_" d="m388.143 133.763c2.63 0 5.21-1.07 7.07-2.93s2.93-4.44 2.93-7.07-1.07-5.21-2.93-7.07c-1.87-1.86-4.44-2.93-7.07-2.93s-5.21 1.07-7.08 2.93c-1.86 1.86-2.92 4.44-2.92 7.07s1.06 5.21 2.92 7.07c1.87 1.859 4.44 2.93 7.08 2.93z"/></g></g></svg>