<svg id="Capa_1" enable-background="new 0 0 512 512" height="512" viewBox="0 0 512 512" width="512" xmlns="http://www.w3.org/2000/svg"><g><g><path d="m34.291 0v30.454h42.398l10.02-14.87-10.02-15.584z" fill="#2d6994"/><path d="m130.971 0h-54.282v30.454h26.919l7.537 81.579 31.856 19.102z" fill="#afd1fd"/></g><g><path d="m223.442 92.146c0 43.609 30.294 80.138 70.985 89.701l13.235-96.906-13.235-82.496c-40.691 9.563-70.985 46.093-70.985 89.701z" fill="#fee071"/><path d="m407.735 92.146c0-50.891-41.255-92.146-92.146-92.146-7.283 0-14.366.848-21.162 2.445v179.402c6.795 1.597 13.879 2.446 21.162 2.446 50.891 0 92.146-41.255 92.146-92.147z" fill="#fed200"/><path d="m178.441 411.299c-10.789 0-19.584-5.995-23.527-16.039-3.942-10.042-1.575-20.42 6.333-27.76l19.465-18.067-20.414-21.993-19.464 18.067c-16.78 15.574-22.217 39.408-13.851 60.719s28.564 35.081 51.459 35.081h115.986l12.244-15.521-12.244-14.486h-115.987z" fill="#afd1fd"/></g><g><g><ellipse cx="224.706" cy="461.667" fill="#2d6994" rx="50.333" ry="50.333" transform="matrix(.995 -.104 .104 .995 -46.935 25.96)"/></g><g><g><path d="m162.128 127.055 10.635-108.619h52.684l10.636 108.619z" fill="#badb47"/></g></g><g><g><path d="m440.263 146.2h-112.809v-84.382h112.809z" fill="#edf5ff"/></g></g></g><g><path d="m111.145 112.033 4.79 51.844 178.492 38.973 22.153-62.422-22.153-28.395z" fill="#fd445f"/><path d="m477.709 112.033h-183.282v51.844h175.342z" fill="#e1105a"/></g><g><path d="m115.935 163.877 17.512 189.564h160.98l26.116-93.124-26.116-96.44z" fill="#e1105a"/></g><path d="m469.769 163.877h-175.342v189.564h146.311z" fill="#b20844"/><path d="m294.427 411.299h145.033v30.007h-145.033z" fill="#6dabfc"/><circle cx="360.733" cy="461.667" fill="#2d5177" r="50.333"/></g></svg>